<svg xmlns="http://www.w3.org/2000/svg" viewBox="0 0 100 100" fill="none">
  <defs>
    <linearGradient id="gradient" x1="0%" y1="0%" x2="100%" y2="100%">
      <stop offset="0%" style="stop-color:#0052FF;stop-opacity:1" />
      <stop offset="100%" style="stop-color:#4D8AFF;stop-opacity:1" />
    </linearGradient>
  </defs>
  <rect width="100" height="100" rx="20" fill="#0a0a0f"/>
  <rect x="10" y="10" width="80" height="80" rx="15" fill="url(#gradient)" opacity="0.2"/>
  <!-- Ticket icon -->
  <g transform="translate(20, 25)">
    <path d="M0 10C0 6.68629 2.68629 4 6 4H54C57.3137 4 60 6.68629 60 10V15C56.6863 15 54 17.6863 54 21C54 24.3137 56.6863 27 60 27V32C60 35.3137 57.3137 38 54 38H6C2.68629 38 0 35.3137 0 32V27C3.31371 27 6 24.3137 6 21C6 17.6863 3.31371 15 0 15V10Z" fill="url(#gradient)"/>
    <line x1="20" y1="4" x2="20" y2="38" stroke="#0a0a0f" stroke-width="2" stroke-dasharray="4 4"/>
  </g>
  <!-- Star/sparkle -->
  <g transform="translate(55, 15)">
    <path d="M10 0L12 7L19 7L13 12L15 19L10 15L5 19L7 12L1 7L8 7Z" fill="#FFD700"/>
  </g>
</svg>
